<svg width="64" height="53" fill="none" xmlns="http://www.w3.org/2000/svg">
  <path d="M8.24 48.67c-.08-.96-.66-1.9-2.24-1.98.98-.13 2.32-2.37 1.74-4.03-.48-1.35-1.92-.82-2.76-.56-.16 1.28.2 3.63-1.22 3.93-.06-.67.06-1.79-.11-2.96-.34-1.93-2.7-1.04-3.25-.8.2 2.15.18 2.72.18 5.3.01.88-.08 2.27 0 3.02.22 2 2.6 1.47 3.26.79 0-.85-.02-2.58-.06-3.54 1.05-.08 1.24.22 1.28 2.46.01 2.24 2.67 1.83 3.45 1.06-.27-.83-.19-1.89-.27-2.69zm1.39-1.65c0 4.64 2.4 5.03 4.08 4.98 1.55 0 4.1-.43 4.11-4.98-.02-3.88-1.74-5.26-4.06-5.26-2.45 0-4.13 1.5-4.13 5.26zm4.13-2.65c.17 0 .84-.26.84 2.54 0 1.83-.28 2.87-.86 2.87-.48 0-.86-.44-.82-2.87 0-2.2.56-2.54.84-2.54zm7.35.33c0 .92-.01 1.92.03 5.03.02 1.25.07 2.27 1.5 2.24 1.29 0 1.6-.51 1.75-.67.05-1.4-.05-4.44-.08-6.55l1-.01c1.02-.04 1.37-.64 1.35-1.5-.01-.95-.8-1.46-1.88-1.46H18.97c-.45 1.88-.18 2.9 1.66 2.92h.48zm12.14-2.86a56.43 56.43 0 00-5.7.02c.22 2.12.23 4.86.2 6.8.03 1.85-.13 3.15 1.82 3.28 1.28.1 2 .1 3.16 0 1.56-.13 2.2-.98 1.45-2.84-1.3.2-2.5.24-3.25.1 0-.22-.03-.93 0-1.1.72 0 1.5-.04 2.2-.04 1.42 0 1.28-2.28-.02-2.28-.93-.05-1.34.04-2.2-.04v-1.26c.97-.08 1.4-.03 2.22 0 1.53.05 1.53-2.32.12-2.64zm5-3.49c-1.05.69-.99 1.73-.24 2.35.85.61 2.51.42 3.63-.08 1.03-.46 1.43-1.52.34-2.3-1.62.85-2.69.42-3.73.03zm5.7 4.85c0-.96-.6-1.42-1.57-1.42-1.12 0-1.7.28-2.03 1.3-.4 1.26-1 3.18-1.33 4.5 0-.57.1-3.96.1-4.38 0-1.06-.56-1.42-1.5-1.42-.66 0-1.83.41-1.83.41.1.72.17 1.14.2 2.08.02 1 0 2.58.09 5.71.04 1.54.54 2.05 1.79 2 2.24-.08 2.38-4.2 3-5.7l-.04 3.86c0 1.1.1 1.84 1.36 1.84 1.09 0 1.71-.36 1.9-.7-.13-.48-.17-3.4-.17-5.68 0-1 .01-1.89.03-2.4zm9.27 5.47c-.08-.96-.66-1.9-2.24-1.98.97-.13 2.32-2.37 1.74-4.03-.48-1.35-1.92-.82-2.77-.56-.16 1.28.21 3.63-1.21 3.93-.07-.67.06-1.79-.11-2.96-.34-1.93-2.7-1.04-3.25-.8.2 2.15.17 2.72.17 5.3.02.88-.08 2.27 0 3.02.23 2 2.61 1.47 3.27.79 0-.85-.02-2.58-.07-3.54 1.06-.08 1.25.22 1.28 2.46.02 2.24 2.68 1.83 3.46 1.06-.27-.83-.2-1.89-.27-2.69zm9.7 2.63c-.22-.63-.2-.93-.25-1.83-.13-2.33-.16-4.59-.93-6.14-1.3-2.29-4.64-1.67-6.25-.51-.15 2.76-.63 3.9-.93 6.99-.23 2.25 1.66 2.88 3.42 1.77 0-.27 0-1.21.08-1.44l1.3.02s-.08.93.37 1.42c.8.92 2.64.64 3.2-.28zm-4.75-3.16c.12-.86.12-2.65.16-3.04.08-.06.63-.03.7.05.18.75.18 2.13.23 3h-1.09z" fill="#1A212F"/>
  <path d="M39 7L45.58.42c.89-.9 2.42-.26 2.42 1V19c0-5.7-4.51-9.17-9-12z" fill="#FF7236"/>
  <path d="M48 19a16 16 0 11-32 0c0-8.84 7.16-15 16-15s16 6.16 16 15z" fill="#FFAA50"/>
  <path d="M25 19c0-7.7 4.42-13.37 10.31-14.7C34.24 4.1 33.14 4 32 4c-2.94 0-5.7.7-8.06 1.93L18.42.42c-.89-.9-2.42-.26-2.42 1V19c0-.36 0-.36 0 0a16 16 0 0019.31 15.65C29.42 33.13 25 26.7 25 19z" fill="#FF7236"/>
  <path d="M28.5 29c1.93 0 3.5-1.35 3.5-3 0-1.66-1.57-3-3.5-3S25 24.34 25 26c0 1.65 1.57 3 3.5 3zM35.5 29c1.93 0 3.5-1.35 3.5-3 0-1.66-1.57-3-3.5-3S32 24.34 32 26c0 1.65 1.57 3 3.5 3z" fill="#FFFDFB"/>
  <path d="M32 26a2 2 0 100-4 2 2 0 000 4z" fill="#FF913C"/>
  <path d="M26 20a1 1 0 01-1-1v-1a1 1 0 112 0v1a1 1 0 01-1 1zM38 20a1 1 0 01-1-1v-1a1 1 0 112 0v1a1 1 0 01-1 1z" fill="#1A212F"/>
</svg>
