<svg width="34" height="34" fill="none" xmlns="http://www.w3.org/2000/svg">
  <path d="M34 17c0 4.54-1.77 8.8-4.98 12.02A16.89 16.89 0 0117 34c-4.54 0-8.81-1.77-12.02-4.98A16.89 16.89 0 010 17c0-4.54 1.77-8.81 4.98-12.02A16.89 16.89 0 0117 0c4.54 0 8.81 1.77 12.02 4.98A16.89 16.89 0 0134 17z" fill="#FFFEFD"/>
  <path d="M22.87 16.16c-2.8 1.6-2.32 6.3.71 6.3 1.31 0 2.45-.99 2.95-2.25 1.17-2.9-1.26-5.43-3.66-4.05zM20 16.74c3.35 0 4.36-5.7 1.17-6.64-1.46-.43-3.1.6-3.64 2.47-.6 2.1.58 4.17 2.46 4.17z" fill="#FF7236"/>
  <path d="M19.13 26.9a9.84 9.84 0 00-2.16-.23 9.9 9.9 0 00-2.5.23c-1.67.46-3.95-.67-3.45-3.01.46-2.17 2.12-2.05 2.52-4.1.4-2.08 1.93-3.08 3.43-3 1.38.07 2.73 1.07 3.1 3 .4 2.05 2.05 1.93 2.51 4.1.5 2.35-1.78 3.47-3.45 3zM14.08 16.74c.95 0 1.77-.55 2.22-1.4 1.35-2.5-.86-5.98-3.4-5.24-3.19.94-2.18 6.64 1.18 6.64z" fill="#FF7236"/>
  <path d="M12.56 20.59c1.08-2.64-1.47-5.87-3.92-4.85-2.94 1.22-1.64 6.49 1.6 6.49 1.03 0 1.91-.64 2.32-1.64zM19.13 26.9a9.83 9.83 0 00-2.16-.23V16.8c1.38.07 2.73 1.07 3.1 3 .4 2.05 2.05 1.93 2.51 4.1.5 2.35-1.78 3.47-3.45 3z" fill="#FF7236"/>
</svg>
