<svg xmlns="http://www.w3.org/2000/svg">
    <symbol id="empty" viewBox="0 0 16 16">
        <path d="M16 7.87c0 2.1-.83 4.08-2.34 5.57A8.01 8.01 0 018 15.74c-1.5 0-2.93-.4-4.17-1.15l.91-.9A6.8 6.8 0 008 14.5a6.7 6.7 0 006.75-6.64c0-1.16-.3-2.25-.84-3.2l.92-.9A7.73 7.73 0 0116 7.87zM.91 15.72l-.88-.87 1.89-1.86A7.74 7.74 0 012.34 2.3 8.01 8.01 0 018 0c1.93 0 3.75.67 5.2 1.89L15.09.03l.88.87L.91 15.72zm1.9-3.61l9.5-9.35A6.79 6.79 0 001.25 7.87c0 1.61.59 3.09 1.56 4.24z" fill="#777"/>
    </symbol>
    <symbol id="bed" viewBox="0 0 16 12">
        <path d="M16 3.36C15.9 1.48 14.46 0 12.7 0H3.3C1.53 0 .1 1.48 0 3.36v7.02C0 11.28.68 12 1.5 12h13c.82 0 1.5-.73 1.5-1.62V3.36zM3.3.75h9.4c1.26 0 2.32.96 2.56 2.26h-.72A1.92 1.92 0 0012.7 1.5H8.15c-.2 0 .35.17.35.37 0 .21-.54.38-.35.38h4.55c.49 0 .91.3 1.1.76h-.34c-.87 0-1.58.73-1.63 1.65a11.94 11.94 0 00-7.66 0c-.05-.92-.76-1.65-1.63-1.65H2.2c.19-.46.61-.76 1.1-.76h4.85c.19 0 .35-.17.35-.38 0-.2-.16-.37-.35-.37H3.29c-.86 0-1.6.62-1.83 1.5H.74A2.66 2.66 0 013.3.76zm8.53 4.7v1.28c0 .55-.42 1-.94 1H5.11c-.52 0-.94-.45-.94-1V5.45c2.42-.88 5.24-.88 7.66 0zm3.47 4.93c0 .48-.36.87-.8.87h-13c-.44 0-.8-.4-.8-.87V3.76h1.84c.52 0 .94.45.94 1v1.97c0 .96.73 1.75 1.63 1.75h6.32c.4 0 1.1-.47 1.1-1.75V4.76c0-.55.41-1 .93-1h1.84v6.62z" fill="#777"/>
    </symbol>
    <symbol id="claw" viewBox="0 0 14 16">
        <path d="M13.23 13.61H8.9V2.4h1.7v4.44c-.52.12-.9.6-.9 1.17 0 .66.5 1.2 1.14 1.2.62 0 1.13-.54 1.13-1.2 0-.57-.38-1.05-.9-1.17V2.39h1.5a.8.8 0 00.77-.82V.82a.8.8 0 00-.77-.82H1.43a.8.8 0 00-.77.82v.75c0 .45.35.82.77.82H5.1V13.6H.77a.8.8 0 00-.77.82v.75c0 .45.35.82.77.82h12.46a.8.8 0 00.77-.82v-.75a.8.8 0 00-.77-.82zM11.48 8c0 .38-.29.68-.64.68a.67.67 0 01-.65-.68c0-.38.29-.68.65-.68.35 0 .64.3.64.68zM1.43 1.57V.82c0-.17.24-.23.4-.23H12.4c.16 0 .29.06.29.23v.75c0 .17-.13.21-.29.21H1.83c-.16 0-.4-.04-.4-.2zm4.3 10.21h.28s.24-.12.24-.26-.1-.26-.24-.26h-.28V9.43h2.58c.13 0 .96-.14.31-.29.65-.14-.18-.22-.31-.22H5.73V7.08H8c.14 0-.24-.11-.24-.25 0-.15.38-.26.24-.26H5.73V2.39h2.58v1.83H5.52c-.13 0 0-.03 0 .12 0 .4-.14.4-.14.4H8.3v1.83h-.32a.25.25 0 00-.24.26c0 .14.1.25.24.25h.32v4.18h-2.3c-.14 0 .24.12.24.26s-.38.26-.24.26h2.3v1.83H5.73v-1.83zm7.67 3.4c0 .17-.24.21-.4.21H.9c-.15 0-.28-.04-.28-.2v-.76c0-.17.13-.21.29-.21h12.2c.17 0 .3.04.3.2v.76z" fill="#777"/>
    </symbol>
    <symbol id="game" viewBox="0 0 16 16">
        <path d="M14.53 13.05h-4.04A7 7 0 107 14h7.54a.54.54 0 010 1.07H8A.47.47 0 108 16h6.53a1.47 1.47 0 100-2.95zm-7.53 0a6.1 6.1 0 01-.78-.05l5.12-2.95.65.37a6.06 6.06 0 01-5 2.63zm-3.4-1.04l5.57-3.22 1.24.72-5.5 3.17c-.47-.17-.9-.4-1.31-.67zm-.48-9.66c.37-.32.79-.59 1.23-.8v6.43l-1.23.71V2.35zm2.17-1.17c.4-.11.81-.2 1.24-.22v5.77l-1.24.7V1.19zM13.05 7l-.01.43-5.58-3.22V2.8l5.5 3.17c.06.34.1.68.1 1.04zM7.46 5.3l5.42 3.13c-.1.4-.24.8-.42 1.18l-5-2.88V5.3zm5.13-.64L7.46 1.7V.96a6.07 6.07 0 015.13 3.7zM2.18 3.33v5.9l-.65.38a6.02 6.02 0 01.65-6.28zM2 10.43l5-2.9 1.23.72-5.41 3.13a6.1 6.1 0 01-.82-.96z" fill="#777"/>
    </symbol>
    <symbol id="house" viewBox="0 0 16 16">
        <path d="M15.86 7.17L9.2.49A1.67 1.67 0 006.8.5L.14 7.17a.47.47 0 000 .66l.5.5c.53.53 1.26.66 1.87.48v6.72c0 .26.21.47.47.47h10.04c.26 0 .47-.21.47-.47V8.81c.6.18 1.34.05 1.87-.48l.5-.5a.47.47 0 000-.66zm-3.3 1.02v4.86h-2.08v-3.04a2.48 2.48 0 10-4.96 0v3.04H3.45V8.2L8 3.64l4.55 4.55zM3.44 14h2.07v1.07H3.45V14zm3.01 1.07v-5.05a1.54 1.54 0 113.08 0v5.05H6.46zm4.02 0V14h2.07v1.07h-2.07zm4.22-7.4a.95.95 0 01-1.35 0L8.32 2.65a.47.47 0 00-.66 0L2.66 7.66h-.01a.95.95 0 01-1.35 0l-.17-.16 6.34-6.34a.74.74 0 011.06 0l6.34 6.34-.17.17z" fill="#777"/>
    </symbol>
    <symbol id="arrow-top" viewBox="0 0 7 12">
        <path d="M3.5 1L1 3.35M3.5 1v10m0-10l1.25 1.18L6 3.35" stroke="#141312" stroke-linecap="round" stroke-linejoin="round"/>
    </symbol>
    <symbol id="arrow-down" viewBox="0 0 7 12">
        <path d="M3.5 11L6 8.65M3.5 11L1 8.65M3.5 11V1" stroke="#141312" stroke-linecap="round" stroke-linejoin="round"/>
    </symbol>
</svg>